<svg width="417" height="434" viewBox="0 0 417 434" fill="none" xmlns="http://www.w3.org/2000/svg">
<path d="M7.3037 245.876C7.3037 245.876 -1.51759 226.539 18.7363 213.159C38.9903 199.779 72.8105 235.076 98.8285 210.355C124.847 185.635 117.458 187.036 130.228 159.289C142.999 131.542 186.755 119.755 231.721 139.761C276.687 159.767 262.771 131.064 316.144 131.382C369.486 131.701 344.901 257.057 274.172 273.91C203.442 290.762 161.851 323.797 131.279 335.393C100.676 347.021 27.3347 293.725 7.3037 245.876Z" fill="#F1F2F7"/>
<path d="M115.898 392.162H270.063" stroke="#CED5E5" stroke-width="3" stroke-linecap="round" stroke-linejoin="round"/>
<path d="M13.1953 392.162H65.7727" stroke="#CED5E5" stroke-width="3" stroke-linecap="round" stroke-linejoin="round"/>
<path d="M70.6132 392.162H82.1414" stroke="#CED5E5" stroke-width="3" stroke-linecap="round" stroke-linejoin="round"/>
<path d="M97.7458 169.388C97.7458 169.388 89.5296 167.827 88.0647 167.731C87.1093 167.667 73.3837 171.65 73.3837 171.65L72.7468 173.465L71.8233 176.141C71.8233 176.141 70.7087 181.207 76.7276 181.111C82.7464 181.047 94.0835 176.524 94.0835 176.524L97.7458 169.388Z" fill="#FFDFD7"/>
<path d="M287.324 125.999C287.324 125.999 294.394 121.507 295.699 120.87C296.591 120.456 310.794 119.086 310.794 119.086L312.036 120.551L313.883 122.686C313.883 122.686 316.781 126.986 311.176 129.121C305.572 131.255 293.375 131.255 293.375 131.255L287.324 125.999Z" fill="#FFDFD7"/>
<path d="M310.826 119.086C310.826 119.086 311.081 120.902 305.38 122.08C299.68 123.259 297.164 123.641 297.164 123.641" fill="#FFDFD7"/>
<path d="M310.826 119.086C310.826 119.086 311.081 120.902 305.38 122.08C299.68 123.259 297.164 123.641 297.164 123.641" stroke="white" stroke-width="2" stroke-linecap="round" stroke-linejoin="round"/>
<path d="M79.8167 174.198C75.7722 174.421 72.4284 173.625 69.2757 173.657C65.295 173.689 65.6134 177.416 66.0593 181.366C68.6069 204.335 78.3199 274.802 86.1221 308.092C95.4529 347.818 121.439 395.953 186.436 376.68C251.434 357.407 276.305 276.458 281.369 242.308C286.432 208.158 316.176 128.07 316.176 128.07C316.176 128.07 320.889 117.238 306.336 123.323" stroke="#5900CC" stroke-width="8" stroke-linecap="round" stroke-linejoin="round"/>
<path d="M164.654 105.834C164.367 105.897 167.488 94.0464 164.176 86.7193C160.864 79.3604 169.271 64.3559 178.953 71.8741L180.386 85.4769C180.386 85.4769 175.672 103.635 164.654 105.834Z" fill="#FE8163"/>
<path d="M151.438 383.37L141.406 396.527C141.406 396.527 146.565 420.132 167.934 423.159C167.934 423.159 170.004 414.494 167.17 409.683C164.654 405.415 157.106 397.642 154.336 395.889L158.699 392.449L151.438 383.37Z" fill="#5900CC"/>
<path d="M186.755 123.896L190.449 108.382L196.563 110.134L197.328 124.852V133.963L191.468 136.193C191.468 136.193 187.041 131.988 187.01 131.797C186.978 131.605 186.755 123.896 186.755 123.896Z" fill="#FFDFD7"/>
<path d="M166.182 143.329C166.182 143.329 161.087 132.53 163.157 128.611C165.195 124.693 177.01 121.635 185.003 123.96C192.997 126.286 171.787 146.069 166.182 143.329Z" fill="#FFC933"/>
<path d="M304.839 392.162H375.696" stroke="#CED5E5" stroke-width="3" stroke-linecap="round" stroke-linejoin="round"/>
<path d="M380.568 392.162H392.128" stroke="#CED5E5" stroke-width="3" stroke-linecap="round" stroke-linejoin="round"/>
<path d="M398.561 392.162H404.325" stroke="#CED5E5" stroke-width="3" stroke-linecap="round" stroke-linejoin="round"/>
<path d="M351.429 392.162C387.643 392.162 417 362.795 417 326.569C417 290.343 387.643 260.976 351.429 260.976C315.216 260.976 285.859 290.343 285.859 326.569C285.859 362.795 315.216 392.162 351.429 392.162Z" fill="#FFB3DA"/>
<path d="M57.843 365.626H32.3027C28.736 365.626 25.838 362.727 25.838 359.159V352.692C25.838 342.752 33.9269 334.693 43.8309 334.693H46.3467C56.2826 334.693 64.3396 342.784 64.3396 352.692V359.159C64.3077 362.727 61.4098 365.626 57.843 365.626ZM43.7991 340.236C36.9522 340.236 31.3474 345.811 31.3474 352.692V359.159C31.3474 359.668 31.7613 360.082 32.2709 360.082H57.8112C58.3207 360.082 58.7347 359.668 58.7347 359.159V352.692C58.7347 345.842 53.1617 340.236 46.283 340.236H43.7991Z" fill="#5900CC"/>
<path d="M69.2436 372.921C69.2436 359.573 58.4479 348.773 45.1045 348.773C31.7611 348.773 20.9654 359.573 20.9654 372.921C20.9654 386.269 31.7611 392.162 45.1045 392.162C58.4161 392.162 69.2436 386.269 69.2436 372.921Z" fill="#8B34FF"/>
<path d="M173.252 218.192C173.252 218.192 167.743 238.135 173.252 256.771C178.761 275.407 187.806 294.649 187.806 294.649C187.806 294.649 152.871 339.057 148.635 384.357L159.845 393.883C159.845 393.883 206.467 318.987 210.416 308.22C214.365 297.484 201.372 227.081 201.372 227.081L200.098 213.669L174.399 215.23L173.252 218.192Z" fill="#52CB96"/>
<path d="M218.059 212.394C218.059 212.394 237.007 275.152 239.523 292.673C242.071 310.195 241.784 403.758 241.784 403.758H225.67C225.67 403.758 214.078 340.427 218.027 308.06L207.996 268.048L195.417 213.923L218.059 212.394Z" fill="#52CB96"/>
<path d="M93.5741 177.479L98.0962 168.719L102.332 169.834C102.332 169.834 103.797 167.858 106.79 168.273C109.815 168.687 143.986 177.447 143.986 177.447C143.986 177.447 171.787 128.93 186.628 123.832C186.628 123.832 192.36 125.585 194.971 133.453C194.971 133.453 196.468 129.63 197.36 124.82C197.36 124.82 205.003 125.33 218.059 138.678C231.116 152.026 242.995 157.76 242.995 157.76C242.995 157.76 272.675 131.669 275.923 129.503C279.171 127.305 281.846 127.878 281.846 127.878L286.591 124.756L295.222 132.657L292.005 135.301C292.005 135.301 293.311 137.563 291.814 139.442C290.317 141.322 246.052 177.702 242.931 179.295C239.81 180.888 211.181 156.103 211.181 156.103C211.181 156.103 223.569 206.979 217.072 206.787L214.907 208.635L174.399 210.61V209.782C174.399 209.782 172.01 208.157 172.998 200.958C173.985 193.758 178.793 156.581 178.793 156.581C178.793 156.581 154.622 189.234 151.947 192.324C149.272 195.415 134.432 191.751 134.432 191.751C134.432 191.751 98.542 183.277 98.128 180.856C98.128 180.856 97.7459 180.123 97.9369 179.295L93.5741 177.479Z" fill="#FFC933"/>
<path d="M182.933 98.7612C182.933 98.7612 187.678 110.198 192.041 112.683C196.404 115.167 201.722 114.658 205.034 109.497C208.346 104.336 209.843 86.1141 209.142 78.0543C208.442 69.9946 188.442 69.7716 185.704 74.3908C182.933 78.9782 178.857 85.6681 182.933 98.7612Z" fill="#FFDFD7"/>
<path d="M227.677 403.758V412.901C227.677 412.901 235.575 430.613 256.975 433.64C256.975 433.64 258.281 424.592 254.523 421.375C250.765 418.157 242.74 410.544 239.906 409.97L239.46 403.758H227.677Z" fill="#5900CC"/>
<path d="M187.01 106.758C187.01 106.758 175.577 97.0094 175.545 85.5409C175.481 74.1362 177.902 70.186 182.965 66.9684C188.029 63.7509 206.722 60.3104 209.111 77.4812C209.111 77.4812 198.952 79.9342 191.595 77.7042C189.971 77.2263 188.252 78.0227 187.583 79.5519L184.462 90.7654L182.042 95.1935L187.01 106.758Z" fill="#FE8163"/>
<path d="M182.01 95.1933C182.01 95.1933 176.437 92.7084 177.647 85.8274C178.857 78.9463 183.252 83.6292 184.43 86.8149C185.131 88.7263 184.876 90.4785 184.748 91.2112C184.398 93.9508 182.01 95.1933 182.01 95.1933Z" fill="#FFDFD7"/>
<path d="M187.01 106.757C187.01 106.757 173.889 93.8233 174.112 84.0751C174.271 77.7356 176.023 74.104 178.316 71.3324" stroke="#FF562F" stroke-width="3" stroke-linecap="round" stroke-linejoin="round"/>
<path d="M174.399 215.23V209.782C174.399 209.782 207.805 210.069 217.072 206.819L218.059 212.394C218.059 212.394 207.741 215.58 197.073 216.026C186.404 216.44 178.57 216.217 174.399 215.23Z" fill="#FFC933" stroke="#FEAC00" stroke-width="3" stroke-linecap="round" stroke-linejoin="round"/>
<path d="M165.864 144.062C165.864 144.062 175.227 132.02 179.621 128.388C184.016 124.757 185.258 124.438 186.787 123.896" stroke="#FEAC00" stroke-width="3" stroke-linecap="round" stroke-linejoin="round"/>
<path d="M162.743 129.79C162.743 129.79 167.297 134.186 177.042 130.809" stroke="#FEAC00" stroke-width="3" stroke-linecap="round" stroke-linejoin="round"/>
<path d="M194.939 133.453C194.939 133.453 198.538 166.903 199.461 178.849C200.353 190.796 200.353 209.113 200.353 209.113" stroke="#FEAC00" stroke-width="3" stroke-linecap="round" stroke-linejoin="round"/>
<path d="M201.372 227.08L207.996 268.048C207.996 268.048 211.372 293.756 211.149 299.809C210.926 305.894 211.021 307.742 207.964 313.348C204.907 318.955 159.845 393.85 159.845 393.85L148.635 384.325" stroke="#F1F2F7" stroke-width="3" stroke-linecap="round" stroke-linejoin="round"/>
<path d="M71.8233 176.141C71.8233 176.141 75.0716 174.134 77.3327 174.23C79.5937 174.293 83.7337 173.816 83.8929 176.81C83.9884 178.212 84.1158 179.868 84.1158 179.868" fill="#FFDFD7"/>
<path d="M71.8233 176.141C71.8233 176.141 75.0716 174.134 77.3327 174.23C79.5937 174.293 83.7337 173.816 83.8929 176.81C83.9884 178.212 84.1158 179.868 84.1158 179.868" stroke="white" stroke-width="2" stroke-linecap="round" stroke-linejoin="round"/>
<path d="M73.3835 171.65C73.3835 171.65 73.7975 173.434 79.5616 172.414C85.2939 171.363 87.7778 170.821 87.7778 170.821" fill="#FFDFD7"/>
<path d="M73.3835 171.65C73.3835 171.65 73.7975 173.434 79.5616 172.414C85.2939 171.363 87.7778 170.821 87.7778 170.821" stroke="white" stroke-width="2" stroke-linecap="round" stroke-linejoin="round"/>
<path d="M313.915 122.686C313.915 122.686 310.157 122.017 308.087 122.94C306.017 123.832 302.005 124.916 302.928 127.751C303.374 129.057 303.852 130.65 303.852 130.65" fill="#FFDFD7"/>
<path d="M313.915 122.686C313.915 122.686 310.157 122.017 308.087 122.94C306.017 123.832 302.005 124.916 302.928 127.751C303.374 129.057 303.852 130.65 303.852 130.65" stroke="white" stroke-width="2" stroke-linecap="round" stroke-linejoin="round"/>
<path d="M286.018 331.252C286.018 331.252 352.671 351.099 414.993 310.481" stroke="#ED85C3" stroke-width="3" stroke-linecap="round" stroke-linejoin="round"/>
<path d="M54.0215 57.0924L56.2189 108.637L75.6767 100.386L88.8927 131.255L85.517 79.0417L67.0783 86.6555L54.0215 57.0924Z" fill="#F1F2F7"/>
<path d="M282.611 76.4933L308.342 47.7266L293.629 41.9605L302.674 18.5139L277.197 48.2682L291.05 53.8431L282.611 76.4933Z" fill="#F1F2F7"/>
<path d="M222.744 3.79015L217.156 0L213.367 5.58998L218.955 9.38013L222.744 3.79015Z" fill="#F1F2F7"/>
<path d="M10.8362 121.956L8.27399 113.679L-1.79534e-06 116.243L2.56223 124.519L10.8362 121.956Z" fill="#F1F2F7"/>
<path d="M96.1534 35.6528C98.5278 35.6528 100.453 33.7274 100.453 31.3522C100.453 28.977 98.5278 27.0515 96.1534 27.0515C93.7791 27.0515 91.8542 28.977 91.8542 31.3522C91.8542 33.7274 93.7791 35.6528 96.1534 35.6528Z" fill="#F1F2F7"/>
<path d="M235.606 47.5038C237.189 47.5038 238.472 46.2201 238.472 44.6367C238.472 43.0532 237.189 41.7695 235.606 41.7695C234.023 41.7695 232.74 43.0532 232.74 44.6367C232.74 46.2201 234.023 47.5038 235.606 47.5038Z" fill="#F1F2F7"/>
</svg>
